# File created by Blade
# Date/Time:  Wed Jan 21 19:19:18 2015
# Frame Rate: 120.000 fps
#------------------------------------------------------
:FULLY-SPECIFIED
:DEGREES
1100
root 2.333860 29.730914 -6.223129 48.006497 -7.840061 3.535759
RightUpLeg -73.079164 -30.060590 -0.720597
RightLeg 22.751112 -0.000000 -0.000000
RightFoot -0.550311 20.148514 47.554386
RightToeBase 28.906991 -0.000000 -0.000000
LeftUpLeg -48.804730 10.566650 11.466301
LeftLeg 25.367943 -0.000000 -0.000000
LeftFoot -24.234810 9.128403 -13.247781
LeftToeBase 4.520575 -0.000000 -0.000000
Spine -36.529303 7.358630 4.889896
RightShoulder -16.634666 9.412738 -28.551335
RightArm -10.683718 -2.192282 71.271656
RightForeArm 4.697073 -0.000000 26.417627
RightHand 15.294611 -0.000000 -7.491813
RightHandThumb1 -24.326973 -0.000000 -32.862282
LeftShoulder -10.960848 3.862141 38.739563
LeftArm 10.590584 -28.981964 -50.963393
LeftForeArm 19.207439 -0.000000 24.441060
LeftHand -23.315983 -0.000000 13.483693
LeftHandThumb1 -26.253704 0.000000 33.147579
Head -5.354455 -6.769232 13.884722
1101
root 2.383448 29.809015 -6.226569 48.278277 -8.072284 3.139131
RightUpLeg -73.721135 -29.158811 -0.216345
RightLeg 24.052430 -0.000000 -0.000000
RightFoot 0.017138 20.266745 48.254243
RightToeBase 28.154835 -0.000000 -0.000000
LeftUpLeg -48.634513 11.080702 11.389060
LeftLeg 24.691341 -0.000000 -0.000000
LeftFoot -23.864830 9.047518 -13.068997
LeftToeBase 4.461641 -0.000000 -0.000000
Spine -36.658395 7.460458 4.872900
RightShoulder -16.605664 9.659480 -28.689856
RightArm -10.447455 -2.592674 70.804039
RightForeArm 5.100872 -0.000000 25.947749
RightHand 15.309587 0.000000 -7.487513
RightHandThumb1 -24.326973 -0.000000 -32.862282
LeftShoulder -11.050311 4.133336 38.662809
LeftArm 10.424659 -29.078044 -51.408442
LeftForeArm 19.103116 -0.000000 24.258187
LeftHand -23.510496 -0.000000 13.872917
LeftHandThumb1 -26.253704 0.000000 33.147579
Head -5.503225 -6.439600 13.786011
1102
root 2.433795 29.883263 -6.227780 48.489307 -8.294557 2.791121
RightUpLeg -74.273958 -28.301432 0.201313
RightLeg 25.339877 -0.000000 -0.000000
RightFoot 0.430097 20.398586 48.965077
RightToeBase 27.884867 -0.000000 -0.000000
LeftUpLeg -48.381351 11.381641 11.402431
LeftLeg 23.990570 -0.000000 -0.000000
LeftFoot -23.517749 9.147939 -12.987203
LeftToeBase 4.411332 -0.000000 -0.000000
Spine -36.723871 7.504254 4.924150
RightShoulder -16.505529 9.926861 -28.868364
RightArm -10.202547 -2.895842 70.315714
RightForeArm 5.230750 -0.000000 25.504305
RightHand 15.183016 -0.000000 -7.264248
RightHandThumb1 -24.326973 -0.000000 -32.862282
LeftShoulder -11.194180 4.464365 38.579945
LeftArm 10.244960 -29.142216 -51.899341
LeftForeArm 18.948675 -0.000000 24.117608
LeftHand -23.587399 -0.000000 13.976381
LeftHandThumb1 -26.253704 0.000000 33.147579
Head -5.617160 -6.060520 13.613686
1103
root 2.485443 29.951697 -6.226380 48.662048 -8.508375 2.532085
RightUpLeg -74.751922 -27.523112 0.535080
RightLeg 26.588341 -0.000000 -0.000000
RightFoot 1.032428 20.501060 50.126223
RightToeBase 27.781528 -0.000000 -0.000000
LeftUpLeg -48.107533 11.536576 11.412042
LeftLeg 23.305167 -0.000000 -0.000000
LeftFoot -23.185884 9.316696 -12.916301
LeftToeBase 4.370092 -0.000000 -0.000000
Spine -36.753253 7.464033 4.991315
RightShoulder -16.372181 10.203163 -29.084419
RightArm -9.898610 -3.300793 69.826395
RightForeArm 5.374248 -0.000000 25.005223
RightHand 15.174339 -0.000000 -7.100393
RightHandThumb1 -24.326973 -0.000000 -32.862282
LeftShoulder -11.419394 4.805223 38.464346
LeftArm 10.139400 -29.202337 -52.396839
LeftForeArm 18.826116 -0.000000 23.892249
LeftHand -23.720238 -0.000000 13.998735
LeftHandThumb1 -26.253704 0.000000 33.147579
Head -5.740499 -5.573508 13.382288
1104
root 2.537020 30.013582 -6.220171 48.805101 -8.679283 2.336933
RightUpLeg -75.238220 -26.863333 0.924975
RightLeg 27.880648 -0.000000 -0.000000
RightFoot 1.516307 20.626652 51.076568
RightToeBase 27.582898 -0.000000 -0.000000
LeftUpLeg -47.814082 11.519839 11.476808
LeftLeg 22.622430 -0.000000 -0.000000
LeftFoot -22.922840 9.607016 -12.976747
LeftToeBase 4.312383 -0.000000 -0.000000
Spine -36.784570 7.392790 5.098188
RightShoulder -16.191653 10.534886 -29.371238
RightArm -9.688206 -3.688667 69.313882
RightForeArm 5.436505 -0.000000 24.531229
RightHand 15.109014 -0.000000 -6.763568
RightHandThumb1 -24.326973 -0.000000 -32.862282
LeftShoulder -11.607511 5.120918 38.359525
LeftArm 10.038202 -29.156915 -52.893259
LeftForeArm 18.598370 -0.000000 23.442635
LeftHand -23.656402 -0.000000 14.051322
LeftHandThumb1 -26.253704 0.000000 33.147579
Head -5.805370 -5.104503 13.032601
1105
root 2.585463 30.070039 -6.209693 48.905945 -8.802732 2.207230
RightUpLeg -75.656113 -26.277007 1.259357
RightLeg 29.205033 -0.000000 -0.000000
RightFoot 1.717687 20.896520 51.418828
RightToeBase 27.398134 -0.000000 -0.000000
LeftUpLeg -47.488664 11.381825 11.572073
LeftLeg 21.936775 -0.000000 -0.000000
LeftFoot -22.662217 9.905829 -13.139288
LeftToeBase 4.267530 -0.000000 -0.000000
Spine -36.792932 7.227801 5.244421
RightShoulder -15.956345 10.932557 -29.636558
RightArm -9.504997 -4.251580 68.750071
RightForeArm 5.627769 -0.000000 24.067528
RightHand 15.006727 -0.000000 -6.662934
RightHandThumb1 -24.326973 -0.000000 -32.862282
LeftShoulder -11.807145 5.388690 38.237487
LeftArm 9.868547 -29.191315 -53.349643
LeftForeArm 18.432198 -0.000000 23.031669
LeftHand -23.644352 -0.000000 13.827950
LeftHandThumb1 -26.253704 0.000000 33.147579
Head -5.843213 -4.536682 12.665091
1106
root 2.632240 30.120347 -6.195880 48.991750 -8.941606 2.133165
RightUpLeg -76.111291 -25.782458 1.684259
RightLeg 30.514657 -0.000000 -0.000000
RightFoot 2.165335 21.254042 51.998034
RightToeBase 27.422899 -0.000000 -0.000000
LeftUpLeg -47.180062 11.284341 11.577266
LeftLeg 21.287120 -0.000000 -0.000000
LeftFoot -22.383446 10.112124 -13.310066
LeftToeBase 4.139770 -0.000000 -0.000000
Spine -36.818777 7.087554 5.374092
RightShoulder -15.718620 11.246314 -29.953480
RightArm -9.216990 -4.687191 68.186420
RightForeArm 5.579805 0.000000 23.499047
RightHand 14.908201 0.000000 -6.398722
RightHandThumb1 -24.326973 -0.000000 -32.862282
LeftShoulder -12.001811 5.631183 38.085271
LeftArm 9.794623 -29.134206 -53.774737
LeftForeArm 18.236392 -0.000000 22.421969
LeftHand -23.513713 0.000000 13.654287
LeftHandThumb1 -26.253704 0.000000 33.147579
Head -5.794238 -3.959828 12.202846
